<?xml version="1.0" encoding="utf-8"?>
<!-- Generator: Adobe Illustrator 23.0.1, SVG Export Plug-In . SVG Version: 6.00 Build 0)  -->
<svg version="1.1" id="Layer_1" xmlns="http://www.w3.org/2000/svg" xmlns:xlink="http://www.w3.org/1999/xlink" x="0px" y="0px"
	 viewBox="0 0 250 250" style="enable-background:new 0 0 250 250;" xml:space="preserve">
<style type="text/css">
	.st0{fill:#E9EEFF;}
	.st1{clip-path:url(#SVGID_2_);}
	.st2{fill:#1126E0;}
	.st3{fill:#F4BB28;}
</style>
<g>
	<circle class="st0" cx="126" cy="125.9" r="111"/>
	<g>
		<defs>
			<circle id="SVGID_1_" cx="124.9" cy="125.9" r="111"/>
		</defs>
		<clipPath id="SVGID_2_">
			<use xlink:href="#SVGID_1_"  style="overflow:visible;"/>
		</clipPath>
		<g class="st1">
			<path class="st2" d="M167.7,153.5c-2.7-1.4-5.6-0.5-7.9,1.4c-9.3,8.3-21.2,13.4-34.2,13.4s-24.4-4.6-33.2-12.5
				c-1.8-1.8-4.6-1.8-7-0.9c-31.9,14.7-54.5,46.2-56.8,82.7h198.2C224,199.7,200.4,167.8,167.7,153.5z"/>
			<path class="st2" d="M125.2,159c23,0,41.6-18.6,41.6-41.6s-18.6-41.6-41.6-41.6s-41.6,18.6-41.6,41.6S102.2,159,125.2,159z"/>
			<path class="st3" d="M162.1,193.3v11.1c0,0.5,0,0.9,0.5,1.4l7.4,7c0.9,0.9,1.8,0.9,2.7,0l7.4-7c0.5-0.5,0.5-0.9,0.5-1.4v-11.1
				c0-0.9-0.9-1.8-1.8-1.8H164C163,191.4,162.1,192.4,162.1,193.3z"/>
		</g>
	</g>
</g>
</svg>
