<svg width="73" height="74" viewBox="0 0 73 74" fill="none" xmlns="http://www.w3.org/2000/svg">
<path d="M72.4723 37.4439C72.4723 34.4321 72.2282 32.2344 71.6998 29.9552H37.344V43.5488H57.5101C57.1037 46.927 54.9081 52.0145 50.0291 55.4331L49.9607 55.8882L60.8234 64.312L61.576 64.3872C68.4877 57.9973 72.4723 48.5956 72.4723 37.4439Z" fill="#4285F4"/>
<path d="M37.344 73.2598C47.2237 73.2598 55.5178 70.0036 61.576 64.3872L50.0291 55.433C46.9392 57.5902 42.792 59.096 37.344 59.096C27.6675 59.096 19.4547 52.7064 16.527 43.8745L16.0979 43.911L4.80274 52.6615L4.65503 53.0725C10.6723 65.0382 23.0323 73.2598 37.344 73.2598Z" fill="#34A853"/>
<path d="M16.527 43.8742C15.7545 41.595 15.3075 39.1529 15.3075 36.6296C15.3075 34.106 15.7545 31.6642 16.4864 29.385L16.4659 28.8996L5.02919 20.0085L4.655 20.1867C2.17499 25.1522 0.751953 30.7281 0.751953 36.6296C0.751953 42.531 2.17499 48.1067 4.655 53.0722L16.527 43.8742Z" fill="#FBBC05"/>
<path d="M37.344 14.1634C44.215 14.1634 48.8499 17.1345 51.4928 19.6174L61.8198 9.52376C55.4774 3.6223 47.2237 0 37.344 0C23.0323 0 10.6723 8.2213 4.65503 20.1869L16.4864 29.3852C19.4547 20.5534 27.6675 14.1634 37.344 14.1634Z" fill="#EB4335"/>
</svg>
