<?xml version="1.0" encoding="utf-8"?>
<!-- Generator: Adobe Illustrator 23.0.1, SVG Export Plug-In . SVG Version: 6.00 Build 0)  -->
<svg version="1.1" id="Layer_1" xmlns="http://www.w3.org/2000/svg" xmlns:xlink="http://www.w3.org/1999/xlink" x="0px" y="0px"
	 viewBox="0 0 60 60" style="enable-background:new 0 0 60 60;" xml:space="preserve">
<style type="text/css">
	.st0{fill:#1126E0;}
	.st1{fill:#F4BB28;}
</style>
<g>
	<path class="st0" d="M47.8,38.9c7.7-5.1,9.6-15.5,4.5-23.2c-3.1-4.6-8.3-7.3-13.8-7.3H21.5c-9.2,0-16.6,7.5-16.6,16.7
		c0,9.2,7.5,16.6,16.6,16.6h2.8c-2.9-1.7-4.9-5-4.9-8.6v-4.3c0-0.6,0.4-1,1-1c0.6,0,1,0.4,1,1v4.3c0,4.4,3.6,8,8,8s8-3.6,8-8v-4.3
		c0-0.6,0.4-1,1-1c0.6,0,1,0.4,1,1v4.3c0,3.6-2,6.9-4.9,8.6h1.4l13.6,9.7c0.5,0.3,1.2,0.2,1.5-0.2c0.2-0.3,0.3-0.6,0.2-0.9
		L47.8,38.9z M35.9,33c0,3.5-2.8,6.4-6.4,6.4c-3.5,0-6.4-2.8-6.4-6.4V22.8c0-3.5,2.8-6.4,6.4-6.4c3.5,0,6.4,2.8,6.4,6.4V33z"/>
	<path class="st1" d="M29.5,37c2.7,0,4.9-2.2,4.9-4.9v-7.7c0-2.7-2.2-4.9-4.9-4.9s-4.9,2.2-4.9,4.9v7.7C24.7,34.9,26.9,37,29.5,37z"
		/>
</g>
</svg>
