<?xml version="1.0" encoding="utf-8"?>
<!-- Generator: Adobe Illustrator 23.0.1, SVG Export Plug-In . SVG Version: 6.00 Build 0)  -->
<svg version="1.1" id="Layer_1" xmlns="http://www.w3.org/2000/svg" xmlns:xlink="http://www.w3.org/1999/xlink" x="0px" y="0px"
	 viewBox="0 0 250 250" style="enable-background:new 0 0 250 250;" xml:space="preserve">
<style type="text/css">
	.st0{fill:#F91280;}
</style>
<g>
	<path class="st0" d="M125,27.8c-58.3,0-105.3,47-105.3,105.3s47,105.3,105.3,105.3s105.3-47,105.3-105.3S183.3,27.8,125,27.8z
		 M125,223c-49.4,0-89.9-40.5-89.9-89.9S75.6,43.2,125,43.2s89.9,40.5,89.9,89.9S174.4,223,125,223z"/>
	<path class="st0" d="M25.4,57.8l32.4-32.4c3.2-3.2,3.2-8.1,0-11.3c-3.2-3.2-8.1-3.2-11.3,0L14,46.4c-3.2,3.2-3.2,8.1,0,11.3
		c1.6,1.6,3.2,2.4,5.7,2.4S23.7,59.4,25.4,57.8z"/>
	<path class="st0" d="M236,46.4L203.6,14c-3.2-3.2-8.1-3.2-11.3,0s-3.2,8.1,0,11.3l32.4,32.4c1.6,1.6,3.2,2.4,5.7,2.4
		c2.4,0,4.1-0.8,5.7-2.4C239.2,54.5,239.2,49.7,236,46.4z"/>
	<path class="st0" d="M189,141.2h-0.8c-4.1-0.8-7.3-4.1-7.3-8.1c0-4.1,3.2-7.3,7.3-8.1h0.8c0,0,0,0,0.8,0h8.1
		c-4.1-34-30.8-60.8-64.8-64.8v8.1c0,0,0,0,0,0.8v0.8c-0.8,4.1-4.1,7.3-8.1,7.3c-4.1,0-7.3-3.2-8.1-7.3v-0.8c0,0,0,0,0-0.8v-8.1
		C82.9,64.2,56.1,91,52.1,125h8.1c0,0,0,0,0.8,0h0.8c4.1,0.8,7.3,4.1,7.3,8.1c0,4.1-3.2,7.3-7.3,8.1H61c0,0,0,0-0.8,0h-8.1
		c4.1,34,30.8,60.8,64.8,64.8v-8.1c0,0,0,0,0-0.8v-0.8c0.8-4.1,4.1-7.3,8.1-7.3c4.1,0,7.3,3.2,8.1,7.3v0.8c0,0,0,0,0,0.8v8.1
		c34-4.1,60.8-30.8,64.8-64.8H189C189.8,141.2,189.8,141.2,189,141.2z M133.1,133.1c0,0.8,0,2.4-0.8,3.2s-0.8,1.6-1.6,2.4
		l-24.3,24.3c-1.6,1.6-3.2,2.4-5.7,2.4c-2.4,0-4.1-0.8-5.7-2.4c-3.2-3.2-3.2-8.1,0-11.3l21.9-21.9v-29.2c0-4.1,4.1-8.1,8.1-8.1
		c4.1,0,8.1,4.1,8.1,8.1V133.1z"/>
	<path class="st0" d="M116.9,69.1C116.9,68.3,116.9,68.3,116.9,69.1v-8.9l0,0V69.1z"/>
	<path class="st0" d="M116.9,197.9L116.9,197.9v8.1l0,0V197.9z"/>
	<path class="st0" d="M133.1,60.2L133.1,60.2v8.1c0,0,0,0,0,0.8V60.2z"/>
	<path class="st0" d="M133.1,197.1C133.1,197.9,133.1,197.9,133.1,197.1v8.9l0,0V197.1z"/>
	<path class="st0" d="M189,141.2h8.9l0,0H189C189.8,141.2,189.8,141.2,189,141.2z"/>
	<path class="st0" d="M197.9,125L197.9,125H189c0,0,0,0,0.8,0H197.9z"/>
</g>
</svg>
