<?xml version="1.0" encoding="utf-8"?>
<!-- Generator: Adobe Illustrator 23.0.1, SVG Export Plug-In . SVG Version: 6.00 Build 0)  -->
<svg version="1.1" id="Layer_1" xmlns="http://www.w3.org/2000/svg" xmlns:xlink="http://www.w3.org/1999/xlink" x="0px" y="0px"
	 viewBox="0 0 250 250" style="enable-background:new 0 0 250 250;" xml:space="preserve">
<style type="text/css">
	.st0{fill:#EEFFF9;}
	.st1{fill:#20F2A1;}
</style>
<circle class="st0" cx="125" cy="125" r="125"/>
<path class="st1" d="M97.5,64.3c-2.5,0.2-4.3,3.3-3.3,5.6l16.6,38.9h-21c-1.6,0-3.1,1-3.6,2.4c-0.7,1.4-0.3,3.2,0.7,4.3l62.2,68.9
	c1.2,1.4,3.4,1.7,5,0.8c1.6-0.9,2.4-3,1.9-4.7l-11.9-39.4h16.1c2.5,0,4.7-2.7,4-5.1l-19-68.9c-0.5-1.7-2.2-3-4-3
	C126.7,64.3,112.1,64.3,97.5,64.3L97.5,64.3z"/>
</svg>
