<?xml version="1.0" encoding="utf-8"?>
<!-- Generator: Adobe Illustrator 23.0.1, SVG Export Plug-In . SVG Version: 6.00 Build 0)  -->
<svg version="1.1" id="Layer_1" xmlns="http://www.w3.org/2000/svg" xmlns:xlink="http://www.w3.org/1999/xlink" x="0px" y="0px"
	 viewBox="0 0 250 250" style="enable-background:new 0 0 250 250;" xml:space="preserve">
<style type="text/css">
	.st0{fill:#FFF0F6;}
	.st1{fill:#F70D6C;}
	.st2{fill:#FCB1D0;}
</style>
<circle class="st0" cx="125" cy="125" r="125"/>
<g>
	<path class="st1" d="M120.2,117.5c-8.1,0-14.5-6.6-14.5-14.5s6.6-14.4,14.5-14.4c8.1,0,14.5,6.6,14.5,14.5S128.3,117.5,120.2,117.5
		z"/>
	<path class="st1" d="M137.5,161.6h39.3c0,0-5.4-25.5-19.1-45.6c-3.7-6-13.9-11.4-21.2-3.1c-7,8.1-14,35.1-14,35.1s-3.7,0-8.7,0
		l-0.1-0.1h-5.2l0.1,0.1c-7.6,0-15.6,0-15.6,0c-0.1,0-0.3,0-0.5,0l-0.5-0.5c-1,0.3-2.3,0.9-3.6,1.8l0.1,0.1
		c-1.6,1.2-2.7,3.1-2.7,5.2c0,3.7,3.1,6.8,6.7,6.8h40.4l14.9-32.5c0.5-0.9,1.6-1.4,2.5-0.9c0.9,0.5,1.4,1.6,0.9,2.5L137.5,161.6z"/>
	<g>
		<path class="st2" d="M101.2,127.7l-1.8-1.7l7.8-8.4l1.8,1.7L101.2,127.7z"/>
		<path class="st2" d="M105.1,133.1l-0.9-2.3l13.7-5.6l0.9,2.3L105.1,133.1z"/>
		<path class="st2" d="M96.2,123.5l-2.5-0.5l2.3-13.9l2.5,0.5L96.2,123.5z"/>
		<path class="st2" d="M86.6,123.2l-3.4-16.6l2.4-0.6l3.4,16.6L86.6,123.2z"/>
		<path class="st2" d="M78.1,132.7c-0.3-0.3-0.6-0.6-0.7-0.8h14c1.4,0,2.7,0.8,4.5,2.7l12.5,13.1h5.2L98.8,132
			c-1.9-2-4.1-3.9-7.3-3.9H76.7c-2.2,0-3,1.2-3.2,1.8c-0.3,0.8-0.7,2.7,1.9,5.3l13.2,14c1.2-0.8,2.4-1.4,3.6-1.8L78.1,132.7z"/>
	</g>
</g>
</svg>
