<?xml version="1.0" encoding="utf-8"?>
<!-- Generator: Adobe Illustrator 23.0.1, SVG Export Plug-In . SVG Version: 6.00 Build 0)  -->
<svg version="1.1" id="Layer_1" xmlns="http://www.w3.org/2000/svg" xmlns:xlink="http://www.w3.org/1999/xlink" x="0px" y="0px"
	 viewBox="0 0 250 250" style="enable-background:new 0 0 250 250;" xml:space="preserve">
<style type="text/css">
	.st0{fill:#EEFBFF;}
	.st1{fill:#3EDFF9;}
	.st2{fill:#B4ECF9;}
</style>
<g>
	<circle class="st0" cx="125" cy="125" r="125"/>
	<g>
		<polygon class="st1" points="125,90.3 139.1,118.8 170.5,123.3 147.7,145.4 153.2,176.8 125,162 96.8,176.8 102.3,145.4 
			79.5,123.3 110.9,118.8 		"/>
		<g>
			<path class="st2" d="M71.3,109.2l-9.8-9.8c17-16.9,39.6-26.2,63.6-26.1c24,0.1,46.4,9.4,63.4,26.5l-9.9,9.8
				c-14.3-14.4-33.4-22.4-53.6-22.4C104.8,87,85.7,94.9,71.3,109.2L71.3,109.2z"/>
			<path class="st2" d="M101.3,127l-9.8-9.9c9.4-9.4,20.8-14.1,32.9-13.7c11.6,0.3,23.2,5.7,32.5,15.1l-9.8,9.8
				c-6.9-6.9-14.9-10.8-23-11C115.7,117.1,107.9,120.3,101.3,127L101.3,127z"/>
			<circle class="st2" cx="124.1" cy="141.5" r="7.3"/>
		</g>
	</g>
</g>
</svg>
