<?xml version="1.0" encoding="utf-8"?>
<!-- Generator: Adobe Illustrator 23.0.1, SVG Export Plug-In . SVG Version: 6.00 Build 0)  -->
<svg version="1.1" id="Layer_1" xmlns="http://www.w3.org/2000/svg" xmlns:xlink="http://www.w3.org/1999/xlink" x="0px" y="0px"
	 viewBox="0 0 250 250" style="enable-background:new 0 0 250 250;" xml:space="preserve">
<style type="text/css">
	.st0{fill:#F2DFCC;}
	.st1{fill:#A55B17;}
</style>
<circle class="st0" cx="125" cy="125" r="125"/>
<g>
	<path class="st1" d="M118,125c0-4.2-3.4-7.7-7.7-7.7c-4.2,0-7.7,3.4-7.7,7.7c0,4.3,3.4,7.7,7.7,7.7C114.4,132.7,118,129.2,118,125z
		"/>
	<path class="st1" d="M139.8,117.3c-4.2,0-7.7,3.4-7.7,7.7c0,4.3,3.4,7.7,7.7,7.7c4.2,0,7.7-3.4,7.7-7.7
		C147.5,120.7,144.1,117.3,139.8,117.3z"/>
	<path class="st1" d="M125,72.5C96,72.5,72.5,96,72.5,125S96,177.5,125,177.5s52.5-23.5,52.5-52.5S154,72.5,125,72.5z M139.8,136.2
		h-29.9l0,0c-6.1-0.1-11-5.1-11-11.2c0-6.2,5.1-11.2,11.2-11.2c6.2,0,11.2,5.1,11.2,11.2c0,4-2.2,7.6-5.3,9.5h17.5
		c-3.2-2-5.3-5.6-5.3-9.5c0-6.2,5.1-11.2,11.2-11.2c6.2,0,11.2,5.1,11.2,11.2C151.1,131.2,146,136.2,139.8,136.2z"/>
</g>
</svg>
