<?xml version="1.0" encoding="utf-8"?>
<!-- Generator: Adobe Illustrator 23.0.1, SVG Export Plug-In . SVG Version: 6.00 Build 0)  -->
<svg version="1.1" id="Layer_1" xmlns="http://www.w3.org/2000/svg" xmlns:xlink="http://www.w3.org/1999/xlink" x="0px" y="0px"
	 viewBox="0 0 250 250" style="enable-background:new 0 0 250 250;" xml:space="preserve">
<style type="text/css">
	.st0{fill:#E6F7FF;}
	.st1{fill:#77D6FC;}
	.st2{fill:#03B4F9;}
</style>
<circle class="st0" cx="125" cy="125" r="125"/>
<g>
	<path class="st1" d="M158.4,170.4c6.6,0,12-5.3,12-12v-30.7h-12.9c0.2,0.7,0.3,1.4,0.7,1.9c0.7,1.2,1,2.7,1.1,4.1
		c0.1,2.7-0.9,5.4-2.8,7.5c-1.9,2.2-4.5,3.3-7.4,3.3H149c-2.7,0-5.3-1-7.3-3c-2-1.9-3.1-4.5-3.1-7.3c0-1.5,0.3-3,0.9-4.4
		c0.3-0.8,0.7-1.5,0.9-2.2h-12.8v15.6c0,0.3,0,0.8-0.2,1.1c-0.3,1-1.4,1.7-2.5,1.7c-2.7,0-4.9-0.6-7.2-1.6c-1.8-0.9-4.1-0.5-5.6,0.9
		c-0.9,0.9-1.5,2.2-1.5,3.5c0,1.2,0.6,2.5,1.6,3.4c1,0.9,2.3,1.5,3.6,1.5c0.7,0,1.4-0.2,2-0.6c1.9-1,4.2-1.5,6.4-1.5h0.5
		c1.1,0,2.2,0.7,2.5,1.7c0.2,0.3,0.2,0.9,0.2,1.2v15.4L158.4,170.4L158.4,170.4z"/>
	<path class="st2" d="M158.4,79.6h-30.7v12.9c0.7-0.2,1.4-0.3,1.9-0.7c1.2-0.7,2.7-1,4.1-1.1c2.7-0.2,5.4,0.9,7.5,2.8
		c2.2,2,3.3,4.7,3.3,7.4s-1,5.4-3,7.4c-3.1,3.1-7.8,3.9-11.7,2.2c-0.8-0.3-1.5-0.7-2.3-0.9v12.8h15.8c0.5,0,0.9,0.1,1.5,0.3
		c0.8,0.5,1.2,1.4,1.2,2.3c0,2.7-0.6,4.9-1.6,7.2c-0.3,0.7-0.5,1.4-0.5,2.2c0,1.4,0.5,2.6,1.5,3.5c0.9,0.9,2.3,1.4,3.5,1.5
		c1.2,0,2.5-0.6,3.4-1.6s1.5-2.3,1.5-3.6c0-0.7-0.2-1.4-0.6-2c-1-1.9-1.5-4.2-1.5-6.4V125c0-0.6,0.2-1.2,0.6-1.7
		c0.5-0.7,1.4-1,2.2-1h15.8V91.6C170.4,84.9,165.1,79.6,158.4,79.6z"/>
	<path class="st2" d="M91.6,79.6c-6.7,0-12,5.3-12,12v30.7h12.9c-0.2-0.7-0.3-1.2-0.7-1.9c-0.7-1.2-1-2.7-1.1-4.1
		c-0.1-2.7,0.9-5.4,2.8-7.5c1.9-2.2,4.5-3.3,7.4-3.3c2.5-0.1,5.4,1,7.4,3c2,1.9,3.1,4.5,3.1,7.3c0,1.5-0.3,3-0.9,4.4
		c-0.3,0.8-0.7,1.5-0.9,2.2h12.8v-15.7c0-0.9,0.6-1.9,1.5-2.4c0.5-0.3,1-0.3,1.5-0.3c2.6,0,4.7,0.6,6.9,1.6c1.8,0.9,4.1,0.5,5.6-0.9
		c0.9-0.9,1.5-2.2,1.5-3.5c0-1.2-0.6-2.5-1.6-3.4c-1-0.9-2.4-1.5-3.6-1.5c-0.7,0-1.4,0.2-2,0.5c-2,1-4.2,1.5-6.4,1.5H125
		c-0.5,0-0.9-0.1-1.4-0.3c-0.9-0.5-1.5-1.4-1.5-2.4V79.6H91.6z"/>
	<path class="st2" d="M91.6,170.4h30.7v-12.9c-0.7,0.2-1.2,0.3-1.9,0.7c-1.2,0.7-2.7,1-4.1,1.1c-2.7,0.2-5.4-0.9-7.5-2.8
		c-2.2-1.9-3.3-4.5-3.3-7.4c0-2.7,1-5.4,3-7.4c3.1-3.1,7.8-3.9,11.7-2.2c0.8,0.3,1.5,0.7,2.2,0.9v-12.8l-15.8-0.1
		c-0.6,0.1-1,0-1.5-0.3c-0.8-0.6-1.2-1.5-1.1-2.4c0-2.6,0.6-4.7,1.6-6.9c0.3-0.7,0.5-1.4,0.5-2.2c0-1.4-0.5-2.6-1.5-3.5
		c-0.9-0.9-2.2-1.5-3.5-1.5l0,0c-1.2,0-2.5,0.6-3.4,1.6c-0.9,1-1.5,2.3-1.5,3.6c0,0.7,0.2,1.4,0.5,2c1,2,1.5,4.2,1.5,6.4v0.3
		c0,0.6-0.1,1.1-0.3,1.6c-0.5,0.9-1.4,1.4-2.3,1.4c-0.1,0-0.1,0-0.2,0H79.6v30.7C79.6,165.1,84.9,170.4,91.6,170.4z"/>
</g>
</svg>
