<svg width="60" height="60" viewBox="0 0 60 60" fill="none" xmlns="http://www.w3.org/2000/svg">
<rect width="60" height="60" fill="white"/>
<path d="M28.579 18.0485H15.5053C15.3348 18.0485 15.1642 18.219 15.1642 18.3895V25.8927C15.1642 26.0632 15.3348 26.2337 15.5053 26.2337H28.6358C28.8064 26.2337 28.9769 26.0632 28.9769 25.8927V18.3895C28.92 18.219 28.8064 18.0485 28.579 18.0485Z" fill="#F4BB28"/>
<path d="M44.4948 22.8232H31.4211C31.2505 22.8232 31.08 23.1075 31.08 23.4485V36.9201C31.08 37.2043 31.2505 37.5454 31.4211 37.5454H44.5516C44.7221 37.5454 44.8927 37.2611 44.8927 36.9201V23.4485C44.8358 23.0506 44.7221 22.8232 44.4948 22.8232Z" fill="#F4BB28"/>
<path d="M44.4948 18.1053H31.4211C31.2505 18.1053 31.08 18.2759 31.08 18.4464V20.3222C31.08 20.4927 31.2505 20.6632 31.4211 20.6632H44.5516C44.7221 20.6632 44.8927 20.4927 44.8927 20.3222V18.4464C44.8358 18.219 44.7221 18.1053 44.4948 18.1053Z" fill="#F4BB28"/>
<path d="M15.5053 37.5453H28.6358C28.8064 37.5453 28.9769 36.9769 28.9769 36.4653V30.3832C28.9769 29.8148 28.8064 29.3032 28.6358 29.3032H15.5053C15.3348 29.3032 15.1642 29.8716 15.1642 30.3832V36.4085C15.1642 37.2043 15.2779 37.5453 15.5053 37.5453Z" fill="#F4BB28"/>
<path d="M34.7747 49.1411H54.5558C55.8632 49.1411 57 48.0611 57 46.7537V13.4442C57 12.1368 55.92 11 54.5558 11H5.44421C4.08 11 3 12.08 3 13.4442V46.7537C3 48.0611 4.08 49.1411 5.44421 49.1411H25.1684V49.539H34.7747V49.1411ZM6.86526 40.6716V14.8653H53.1916V40.6716H53.1348H6.86526V40.6716ZM30 46.5832C29.0905 46.5832 28.2947 45.8442 28.2947 44.8779C28.2947 43.9684 29.0337 43.1726 30 43.1726C30.9663 43.1726 31.7053 43.9116 31.7053 44.8779C31.6484 45.8442 30.9095 46.5832 30 46.5832Z" fill="#1126E0"/>
</svg>
