<svg width="60" height="60" viewBox="0 0 60 60" fill="none" xmlns="http://www.w3.org/2000/svg">
<path d="M32.1386 18.3497H39.7526C40.194 18.3497 40.525 18.129 40.7457 17.6876C40.9664 17.3565 40.8561 16.8048 40.6354 16.4737L30.7041 4.33551C30.373 4.00447 29.9317 3.89412 29.3799 4.11482C28.9385 4.22517 28.6075 4.66656 28.6075 5.10795V14.4875C28.7178 16.5841 30.2627 18.3497 32.1386 18.3497Z" fill="#1126E0"/>
<path d="M39.0905 43.0673C38.6491 43.3984 38.3181 43.7294 37.8767 43.8397L30.9248 46.2674C30.5938 46.3777 30.1524 46.4881 29.8213 46.4881C29.1592 46.4881 28.3868 46.2674 27.8351 45.826H11.2829C10.6209 45.826 10.1795 45.3846 10.1795 44.7225C10.1795 44.0604 10.6209 43.619 11.2829 43.619H26.6213C26.5109 43.1777 26.6213 42.6259 26.7316 42.0742L29.1592 35.1223C29.3799 34.5705 29.6006 34.1292 30.042 33.7981L40.9664 22.8737V20.4461C40.6354 20.5564 40.194 20.6668 39.863 20.6668H32.249C29.1592 20.6668 26.6213 17.9081 26.6213 14.4873V5.10775C26.6213 4.77671 26.7316 4.33532 26.8419 4.00427H5.10348C4.55174 4.00427 4 4.44566 4 5.10775V55.8676C4 56.5297 4.55174 56.9711 5.10348 56.9711H39.7526C40.4147 56.9711 40.8561 56.5297 40.8561 55.8676V41.4121L39.0905 43.0673ZM11.1726 15.1494H24.966C25.6281 15.1494 26.0695 15.5908 26.0695 16.2529C26.0695 16.9149 25.6281 17.3563 24.966 17.3563H11.1726C10.5105 17.3563 10.0691 16.9149 10.0691 16.2529C10.0691 15.5908 10.6209 15.1494 11.1726 15.1494ZM11.1726 29.3842H28.7179C29.3799 29.3842 29.8213 29.8256 29.8213 30.4877C29.8213 31.1498 29.3799 31.5912 28.7179 31.5912H11.1726C10.5105 31.5912 10.0691 31.1498 10.0691 30.4877C10.0691 29.8256 10.6209 29.3842 11.1726 29.3842Z" fill="#1126E0"/>
<path d="M56.3047 19.0117L53.9874 16.6944C52.9943 15.7013 51.2287 15.7013 50.1253 16.6944L49.1321 17.6876C50.346 18.3496 51.5598 19.1221 52.6633 20.2256C53.6564 21.2187 54.5392 22.4325 55.2013 23.7567C55.2013 23.7567 55.2013 23.7567 55.2013 23.867L56.1944 22.8739C56.7461 22.3222 56.9668 21.6601 56.9668 20.998C57.0772 20.2256 56.7461 19.5635 56.3047 19.0117Z" fill="#F4BB28"/>
<path d="M51.1183 21.8809C50.2356 20.9981 49.2424 20.2256 48.2493 19.7843C47.8079 19.5636 47.2562 19.6739 46.9251 20.0049L31.4765 35.564C31.3661 35.6743 31.2558 35.7846 31.2558 36.0053L28.8281 42.9572C28.7178 43.3986 28.8281 43.84 29.0488 44.0607C29.2695 44.2814 29.6006 44.3918 29.8213 44.3918C29.9316 44.3918 30.042 44.3918 30.1523 44.2814L37.1042 41.8538C37.2146 41.7434 37.4352 41.7434 37.5456 41.6331L52.9943 26.1844C53.3253 25.8534 53.4356 25.3016 53.2149 24.8602C52.6632 23.6464 52.0011 22.7636 51.1183 21.8809Z" fill="#F4BB28"/>
</svg>
