<svg width="60" height="60" viewBox="0 0 60 60" fill="none" xmlns="http://www.w3.org/2000/svg">
<rect width="60" height="60" fill="white"/>
<path d="M54.5558 6H5.44421C4.08 6 3 7.08 3 8.44421V41.7537C3 43.0611 4.08 44.1411 5.44421 44.1411H25.1684V48.5747H20.7916C20.1095 48.5747 19.5979 49.1432 19.5979 49.7684V52.0421C19.5979 52.7242 20.1663 53.2358 20.7916 53.2358H39.1516C39.8337 53.2358 40.3453 52.7242 40.3453 52.0421V49.7684C40.3453 49.0863 39.8337 48.5747 39.1516 48.5747H34.7747V44.1411H54.5558C55.8632 44.1411 57 43.0611 57 41.7537V8.44421C57 7.13684 55.92 6 54.5558 6ZM30 41.5832C29.0905 41.5832 28.2947 40.8442 28.2947 39.8779C28.2947 38.9684 29.0337 38.1726 30 38.1726C30.9663 38.1726 31.7053 38.9116 31.7053 39.8779C31.6484 40.8442 30.9095 41.5832 30 41.5832ZM53.1347 35.6716H6.86526V9.86526H53.1916V35.6716H53.1347V35.6716Z" fill="#1126E0"/>
<path d="M28.5789 13.0483H15.5052C15.3347 13.0483 15.1642 13.2189 15.1642 13.3894V20.8926C15.1642 21.0631 15.3347 21.2336 15.5052 21.2336H28.6358C28.8063 21.2336 28.9768 21.0631 28.9768 20.8926V13.3894C28.92 13.2189 28.8063 13.0483 28.5789 13.0483Z" fill="#F4BB28"/>
<path d="M44.4948 24.3599H31.4211C31.2505 24.3599 31.08 24.5304 31.08 24.7009V32.2041C31.08 32.3746 31.2505 32.5451 31.4211 32.5451H44.5516C44.7221 32.5451 44.8926 32.3746 44.8926 32.2041V24.7009C44.8358 24.4735 44.7221 24.3599 44.4948 24.3599Z" fill="#F4BB28"/>
<path d="M44.4948 18.7325H31.4211C31.2505 18.7325 31.08 18.9031 31.08 19.0736V20.9494C31.08 21.1199 31.2505 21.2904 31.4211 21.2904H44.5516C44.7221 21.2904 44.8926 21.1199 44.8926 20.9494V19.0736C44.8358 18.8462 44.7221 18.7325 44.4948 18.7325Z" fill="#F4BB28"/>
<path d="M44.4948 13.1051H31.4211C31.2505 13.1051 31.08 13.2756 31.08 13.4462V15.3219C31.08 15.4925 31.2505 15.663 31.4211 15.663H44.5516C44.7221 15.663 44.8926 15.4925 44.8926 15.3219V13.4462C44.8358 13.2188 44.7221 13.1051 44.4948 13.1051Z" fill="#F4BB28"/>
<path d="M15.5052 26.8609H28.6358C28.8063 26.8609 28.9768 26.6903 28.9768 26.5198V24.644C28.9768 24.4735 28.8063 24.303 28.6358 24.303H15.5052C15.3347 24.303 15.1642 24.4735 15.1642 24.644V26.5198C15.1642 26.7472 15.2779 26.8609 15.5052 26.8609Z" fill="#F4BB28"/>
<path d="M15.5052 32.4884H28.6358C28.8063 32.4884 28.9768 32.3179 28.9768 32.1474V30.2716C28.9768 30.1011 28.8063 29.9305 28.6358 29.9305H15.5052C15.3347 29.9305 15.1642 30.1011 15.1642 30.2716V32.1474C15.1642 32.3748 15.2779 32.4884 15.5052 32.4884Z" fill="#F4BB28"/>
</svg>
