<?xml version="1.0" encoding="utf-8"?>
<!-- Generator: Adobe Illustrator 23.0.1, SVG Export Plug-In . SVG Version: 6.00 Build 0)  -->
<svg version="1.1" id="Layer_1" xmlns="http://www.w3.org/2000/svg" xmlns:xlink="http://www.w3.org/1999/xlink" x="0px" y="0px"
	 viewBox="0 0 250 250" style="enable-background:new 0 0 250 250;" xml:space="preserve">
<style type="text/css">
	.st0{fill:#F0E9FF;}
	.st1{fill:#2A0393;}
</style>
<circle class="st0" cx="125" cy="125" r="125"/>
<g>
	<path class="st1" d="M164.4,86.7l-38.5-10.6c-0.6-0.1-1.2-0.1-1.8,0L85.6,86.6C84.1,87.1,83,88.4,83,90v28.8
		c0,24,13.2,44.7,32.7,51.9c3,1.5,6,2.6,9.2,3.2c3.2-0.6,6.4-1.6,9.2-3.2c19.5-7.2,32.7-27.9,32.7-51.9V90
		C166.9,88.4,165.9,87.1,164.4,86.7z M138.5,129.5c0,1.2-1,2.3-2.3,2.3h-4.5v4.5c0,1.2-1,2.3-2.3,2.3h-9c-1.2,0-2.3-1-2.3-2.3v-4.5
		h-4.5c-1.2,0-2.3-1-2.3-2.3v-9.1c0-1.2,1-2.3,2.3-2.3h4.5v-4.5c0-1.2,1-2.3,2.3-2.3h9c1.2,0,2.3,1,2.3,2.3v4.5h4.5
		c1.2,0,2.3,1,2.3,2.3V129.5z"/>
</g>
</svg>
