<svg width="60" height="60" viewBox="0 0 60 60" fill="none" xmlns="http://www.w3.org/2000/svg">
<rect width="60" height="60" fill="white"/>
<path d="M48.3263 19.7942C48.3263 19.3186 47.943 18.8429 47.368 18.8429H43.7266V28.4512H48.3263V19.7942Z" fill="#1126E0"/>
<path d="M4.82072 18.8429H3.95827C3.47914 18.8429 3 19.2234 3 19.7942V49.1898C3.67079 47.4774 4.24575 45.8602 4.82072 44.4332V18.8429Z" fill="#1126E0"/>
<path d="M56.0882 30.7343H12.1993C11.2411 33.2077 15.4575 21.9822 3.47906 54.0414H36.8269L48.3262 53.9463L55.609 35.4908L56.9506 31.971C57.1423 31.305 56.7589 30.7343 56.0882 30.7343Z" fill="#1126E0"/>
<path d="M11.8161 28.451H41.6183V6.95131C41.6183 6.47566 41.235 6 40.66 6H7.88717C7.3122 6 6.92889 6.38053 6.92889 6.95131V38.7252C7.12055 38.1544 9.80371 31.1147 10.3787 29.3072C10.6662 28.8315 11.2411 28.451 11.8161 28.451ZM12.5827 10.1858H35.8687C36.4436 10.1858 36.9228 10.6614 36.9228 11.2322C36.9228 11.803 36.4436 12.2787 35.8687 12.2787H12.5827C12.0077 12.2787 11.5286 11.803 11.5286 11.2322C11.6244 10.6614 12.0077 10.1858 12.5827 10.1858ZM12.5827 16.4644H35.8687C36.4436 16.4644 36.9228 16.9401 36.9228 17.5109C36.9228 18.0817 36.4436 18.5573 35.8687 18.5573H12.5827C12.0077 18.5573 11.5286 18.0817 11.5286 17.5109C11.5286 16.9401 12.0077 16.4644 12.5827 16.4644ZM12.5827 22.648H35.8687C36.4436 22.648 36.9228 23.1236 36.9228 23.6944C36.9228 24.2652 36.4436 24.7409 35.8687 24.7409H12.5827C12.0077 24.7409 11.5286 24.2652 11.5286 23.6944C11.6244 23.1236 12.0077 22.648 12.5827 22.648Z" fill="#F4BB28"/>
</svg>
