<svg width="60" height="60" viewBox="0 0 60 60" fill="none" xmlns="http://www.w3.org/2000/svg">
<rect width="60" height="60" fill="white"/>
<path d="M33.329 27.512L21.1582 18.5231L19.249 21.1481L31.3403 30.2166L33.329 27.512Z" fill="#1126E0"/>
<path d="M50.034 5H31.1812L22.1127 17.3299L34.204 26.3188L50.034 5Z" fill="#1126E0"/>
<path d="M20.124 32.603C19.249 31.9666 18.0557 32.1257 17.4194 33.0008C16.783 33.8758 16.9421 35.069 17.8171 35.7054C18.6921 36.3418 19.8853 36.1827 20.5217 35.3076C21.1581 34.5122 20.999 33.2394 20.124 32.603Z" fill="#1126E0"/>
<path d="M24.3401 26.9552L19.7263 23.5347C16.5444 29.4212 10.3397 32.2054 10.3397 32.2054C13.2034 39.6033 8.43052 47.9558 6.99866 50.1831C6.99866 50.1831 7.0782 50.1831 7.0782 50.2627C8.82825 48.1945 15.5103 41.2738 23.3059 41.8306C23.3059 41.8306 24.181 35.0691 28.8743 30.3758L24.3401 26.9552ZM20.5218 35.3077C19.8854 36.1828 18.6922 36.3418 17.8171 35.7055C16.9421 35.0691 16.783 33.8759 17.4194 33.0008C18.0558 32.1258 19.249 31.9667 20.124 32.6031C20.999 33.2395 21.1581 34.5122 20.5218 35.3077Z" fill="#1126E0"/>
<path d="M55.7614 48.1148C53.8522 46.7625 52.2613 45.6489 49.4771 45.8875C47.5679 46.0466 46.4543 47.0807 45.3406 48.0353C45.0224 48.2739 44.7838 48.5921 44.4656 48.8308C42.4769 50.4217 40.8064 51.6149 38.4995 51.6149C37.3063 51.6149 36.6699 51.2967 35.6358 50.8195C35.2381 50.6604 34.7608 50.4217 34.2835 50.1831C29.4311 48.2739 24.8969 48.7512 19.4876 51.774C16.7034 53.365 12.4874 54.7968 8.58958 52.7286L7.63501 54.5582C9.22596 55.3537 10.8965 55.831 12.7261 55.831C15.192 55.831 17.8171 55.115 20.4422 53.6036C25.2946 50.899 29.1924 50.4217 33.488 52.0922C33.9653 52.2513 34.363 52.49 34.7608 52.6491C35.7949 53.1263 36.829 53.6036 38.4995 53.6036C41.4428 53.6036 43.5906 52.0922 45.7383 50.3422C46.0565 50.024 46.3747 49.7853 46.6929 49.4671C47.6475 48.5921 48.3634 47.9557 49.6362 47.8762C51.784 47.7171 52.8181 48.5126 54.6477 49.7853L54.8068 49.9444L56 48.2739L55.7614 48.1148Z" fill="#F4BB28"/>
<path d="M7.07818 50.1831C6.4418 49.8649 5.64632 49.9444 5.24859 50.5012C4.85085 51.0581 4.9304 51.8536 5.48723 52.3308C6.04406 52.7286 6.83954 52.649 7.31683 52.0922C7.71456 51.5354 7.63502 50.7399 7.07818 50.2626C7.15773 50.2626 7.15773 50.1831 7.07818 50.1831C7.07818 50.1831 7.15773 50.1831 7.07818 50.1831Z" fill="#F4BB28"/>
</svg>
