<?xml version="1.0" encoding="utf-8"?>
<!-- Generator: Adobe Illustrator 23.0.1, SVG Export Plug-In . SVG Version: 6.00 Build 0)  -->
<svg version="1.1" id="Layer_1" xmlns="http://www.w3.org/2000/svg" xmlns:xlink="http://www.w3.org/1999/xlink" x="0px" y="0px"
	 viewBox="0 0 60 60" style="enable-background:new 0 0 60 60;" xml:space="preserve">
<style type="text/css">
	.st0{fill:#1126E0;}
	.st1{fill:#F4BB28;}
</style>
<g>
	<path class="st0" d="M27.5,26.2c-4.2,0-7.6-3.4-7.6-7.6c0-4.1,3.4-7.5,7.6-7.5c4.2,0,7.6,3.4,7.6,7.6
		C35.1,22.8,31.7,26.2,27.5,26.2z"/>
	<path class="st0" d="M36.5,49.2H57c0,0-2.9-13.3-10-23.9c-2-3.1-7.2-6-11.1-1.6c-3.7,4.2-7.3,18.3-7.3,18.3s-2,0-4.6,0L24,42h-2.7
		l0.1,0.1c-4,0-8.1,0-8.1,0c-0.1,0-0.2,0-0.2,0l-0.2-0.2c-0.6,0.2-1.2,0.5-1.9,0.9l0.1,0.1c-0.8,0.7-1.4,1.6-1.4,2.8
		c0,1.9,1.6,3.6,3.5,3.6h21.1l7.8-17c0.2-0.5,0.8-0.7,1.3-0.5c0.5,0.2,0.7,0.8,0.5,1.3L36.5,49.2z"/>
	<path class="st1" d="M17.5,31.5l-0.9-0.9l4.1-4.4l0.9,0.9L17.5,31.5z"/>
	<path class="st1" d="M19.6,34.3l-0.5-1.2l7.2-2.9l0.5,1.2L19.6,34.3z"/>
	<path class="st1" d="M15,29.3l-1.3-0.2l1.2-7.2l1.3,0.2L15,29.3z"/>
	<path class="st1" d="M9.9,29.1l-1.8-8.7l1.3-0.3l1.8,8.7L9.9,29.1z"/>
	<path class="st1" d="M5.5,34.1c-0.2-0.2-0.3-0.3-0.3-0.4h7.3c0.7,0,1.4,0.4,2.4,1.4l6.5,6.8H24l-7.8-8.2c-1-1-2.1-2-3.8-2H4.8
		c-1.1,0-1.5,0.7-1.7,0.9c-0.2,0.4-0.3,1.4,1,2.8l6.9,7.3c0.7-0.4,1.3-0.7,1.9-0.9L5.5,34.1z"/>
</g>
</svg>
