<?xml version="1.0" encoding="utf-8"?>
<!-- Generator: Adobe Illustrator 23.0.1, SVG Export Plug-In . SVG Version: 6.00 Build 0)  -->
<svg version="1.1" id="Layer_1" xmlns="http://www.w3.org/2000/svg" xmlns:xlink="http://www.w3.org/1999/xlink" x="0px" y="0px"
	 viewBox="0 0 250 250" style="enable-background:new 0 0 250 250;" xml:space="preserve">
<style type="text/css">
	.st0{fill:#F1FCE0;}
	.st1{fill:#98DD1F;}
</style>
<circle class="st0" cx="125" cy="125" r="125"/>
<g transform="translate(0,-952.36218)">
	<path class="st1" d="M125,1029.2c-11.1,0-21.9,9.3-22.9,22.9H89.2c-4.4,0-8.2,3.5-7.9,7.8l2.6,57.9c0.2,4.3,3.5,7.8,7.9,7.8h66.1
		c4.4,0,7.7-3.5,7.9-7.8l2.6-57.9c0.2-4.3-3.5-7.8-7.9-7.8h-12.8C146.8,1038.5,136.1,1029.2,125,1029.2L125,1029.2z M125,1033.7
		c8.4,0,17.3,7,18.3,18.4h-36.6C107.7,1040.8,116.5,1033.7,125,1033.7z M123.1,1095.5c-4.4-4.4-9-9.1-12.7-12.8c1.1-1.1,2-2,3.2-3.2
		c3.2,3.2,6.4,6.5,9.5,9.7c6.7-6.7,13.4-13.5,20.2-20.3"/>
</g>
</svg>
