<svg width="245" height="74" viewBox="0 0 245 74" fill="none" xmlns="http://www.w3.org/2000/svg">
<path d="M12.6353 28.2198C12.6353 29.9961 15.1489 31.5043 20.1427 32.7444C21.8855 33.1131 23.4942 33.5823 24.9354 34.1185C26.3765 34.6548 27.8177 35.3921 29.2588 36.3305C30.7 37.3025 31.873 38.5761 32.6774 40.1848C33.5153 41.7935 33.9174 43.6369 33.9174 45.7148C33.9174 49.9377 32.3087 53.2222 29.1248 55.5348C25.9408 57.7803 21.986 58.9198 17.3274 58.9198C8.84803 58.9198 3.0834 55.6353 0 49.0998L9.25021 43.905C10.5238 47.4911 13.205 49.2674 17.3274 49.2674C21.1146 49.2674 23.025 48.0944 23.025 45.7148C23.025 43.972 20.5113 42.4303 15.5176 41.1902C13.6407 40.6875 12.0655 40.1848 10.7249 39.7156C9.41779 39.2128 7.97663 38.4755 6.43493 37.5371C4.89323 36.5651 3.72019 35.3251 2.91583 33.8169C2.11146 32.3087 1.70928 30.5324 1.70928 28.488C1.70928 24.4326 3.18395 21.2151 6.16681 18.9026C9.18318 16.523 12.9369 15.35 17.3944 15.35C20.7459 15.35 23.7958 16.1208 26.5441 17.629C29.2923 19.1372 31.4708 21.3157 33.0796 24.0975L23.9969 29.0577C22.6898 26.2424 20.4778 24.8348 17.4279 24.8348C16.0538 24.8348 14.9143 25.1364 14.0094 25.7732C13.071 26.41 12.6353 27.2479 12.6353 28.2198Z" fill="white"/>
<path d="M57.5792 58.9198C51.3454 58.9198 46.1505 56.8419 41.9946 52.6525C37.8723 48.4631 35.7943 43.3017 35.7943 37.1349C35.7943 30.9681 37.8723 25.8067 41.9946 21.6173C46.184 17.4279 51.3789 15.35 57.5792 15.35C61.6011 15.35 65.2542 16.3219 68.5387 18.2323C71.8232 20.1427 74.3369 22.7568 76.0461 25.9743L66.8965 31.3368C66.0586 29.6275 64.8185 28.2869 63.1428 27.2814C61.467 26.276 59.5901 25.8067 57.4787 25.8067C54.2947 25.8067 51.647 26.8792 49.5691 28.9907C47.4911 31.1021 46.4186 33.8169 46.4186 37.1349C46.4186 40.3188 47.4576 43.0336 49.5691 45.2121C51.647 47.29 54.2947 48.3625 57.4787 48.3625C59.6237 48.3625 61.534 47.8933 63.2098 46.9214C64.8856 45.9494 66.1256 44.6088 66.9635 42.933L76.2137 48.2284C74.4039 51.5129 71.8232 54.1271 68.5052 56.071C65.1872 57.9479 61.534 58.9198 57.5792 58.9198Z" fill="white"/>
<path d="M91.6978 16.4894V23.5947C92.6362 21.014 94.2114 19.0366 96.4905 17.696C98.736 16.3554 101.317 15.6851 104.233 15.6851V27.5495C100.982 27.1138 98.0657 27.7841 95.485 29.5269C92.9379 31.2361 91.6978 34.0514 91.6978 38.0397V57.7467H81.0399V16.4894H91.6978Z" fill="white"/>
<path d="M119.951 57.7802H109.293V16.4894H119.951V57.7802Z" fill="white"/>
<path d="M149.21 15.35C154.774 15.35 159.499 17.4615 163.387 21.7179C167.342 25.9408 169.319 31.1022 169.319 37.1349C169.319 43.3017 167.342 48.4631 163.387 52.6525C159.533 56.8419 154.807 58.9198 149.21 58.9198C143.445 58.9198 138.988 56.9089 135.837 52.8871V57.7468H125.18V0H135.837V21.3827C138.988 17.3609 143.445 15.35 149.21 15.35ZM139.055 45.5472C141.2 47.6922 143.915 48.7647 147.233 48.7647C150.551 48.7647 153.265 47.6922 155.41 45.5472C157.622 43.3352 158.728 40.5535 158.728 37.1349C158.728 33.7164 157.622 30.9346 155.41 28.7896C153.265 26.5776 150.551 25.5051 147.233 25.5051C143.915 25.5051 141.2 26.6111 139.055 28.7896C136.91 30.9346 135.837 33.7164 135.837 37.1349C135.837 40.5535 136.91 43.3687 139.055 45.5472Z" fill="white"/>
<path d="M184.133 16.4894V23.5947C185.071 21.014 186.647 19.0366 188.926 17.696C191.171 16.3554 193.752 15.6851 196.668 15.6851V27.5495C193.417 27.1138 190.501 27.7841 187.92 29.5269C185.373 31.2361 184.133 34.0514 184.133 38.0397V57.7467H173.475V16.4894H184.133Z" fill="white"/>
<path d="M223.748 43.1007L232.898 15.3835H244.293L229.278 56.6408C227.133 62.573 224.284 66.8965 220.732 69.5442C217.179 72.2254 212.755 73.3985 207.493 73.1303V63.2433C210.308 63.3104 212.554 62.7071 214.263 61.4335C215.972 60.1599 217.313 58.149 218.318 55.3337L201.393 15.3835H213.023L223.748 43.1007Z" fill="white"/>
<path d="M119.951 11.6633H109.293C109.293 10.2556 109.83 9.01557 110.869 7.94308C111.908 6.8706 113.148 6.33435 114.589 6.33435C116.063 6.33435 117.337 6.8706 118.376 7.94308C119.415 9.01557 119.951 10.2556 119.951 11.6633Z" fill="#FFC632"/>
</svg>
