<?xml version="1.0" encoding="utf-8"?>
<!-- Generator: Adobe Illustrator 23.0.1, SVG Export Plug-In . SVG Version: 6.00 Build 0)  -->
<svg version="1.1" id="Layer_1" xmlns="http://www.w3.org/2000/svg" xmlns:xlink="http://www.w3.org/1999/xlink" x="0px" y="0px"
	 viewBox="0 0 265.5 84.7" style="enable-background:new 0 0 265.5 84.7;" xml:space="preserve">
<style type="text/css">
	.st0{fill:#060089;}
	.st1{fill:#EDAA15;}
</style>
<path class="st0" d="M36.9,42.6c-0.7-9-1.3-17.6-1.6-25.7H17.1l-0.2,0.6c-1.6,5.2-3.4,10.2-5.2,14.7C10,36.4,7.9,40.7,5.6,45l0,0
	l-0.3,0.2l-0.2,0.1c-1.3,0.9-2.3,2-3.3,3.5C0.6,50.7,0,52.9,0,55.4c0,2.4,0.6,4.7,1.8,6.9c1.2,2.2,3.1,4.1,5.5,5.4
	c2.4,1.4,5.4,2,8.8,2c2.9,0,5.9-0.5,8.9-1.5c1.1-0.4,2.2-0.9,3.2-1.4h0.4l0.4-0.5c0.1,0,0.2-0.1,0.3-0.2l0.5-0.3l0,0
	c0.1-0.1,0.2-0.1,0.3-0.2l0.3-0.2c0.2-0.2,0.5-0.4,0.7-0.6c0.3-0.2,0.6-0.5,0.8-0.7c0.3-0.2,0.5-0.5,0.8-0.8
	c1.3-1.2,3.4-4.6,4.3-8.1c0.3-1.1,0.5-2.5,0.5-4.2C37.4,49.3,37.2,46.4,36.9,42.6z M17.6,56.4C16.4,57.5,14.9,58,13,58
	c-1.4,0-2.3-0.3-2.8-0.9C10.1,57,10,56.9,10,56.8c1.8,0,3.3-0.8,4.5-2.2c1.1-1.4,1.7-2.9,1.7-4.6c0-1.6-0.6-2.9-1.6-4
	c1.4-2.8,2.7-5.4,3.7-7.9c0.1,1.6,0.3,3.4,0.5,5.3c0.4,3.4,0.6,6,0.6,7.8C19.3,53.7,18.7,55.4,17.6,56.4z"/>
<path class="st0" d="M77.6,47.8L77,48.5c-2.8,3.1-5.4,5.4-7.7,6.9c-2.1,1.4-4.7,2.1-7.7,2.1c-1.3,0-2.9-0.2-3.7-1
	c-0.3-0.3-1-1.4-1-4.9c0-3.4,0.6-7.3,1.7-11.5c1.2-4.3,2.7-7.9,4.5-10.9c1.4-2.3,2.9-3.7,3.9-3.7c0.1,0,0.2,0,0.2,0.1
	c0.1,0.2,0.3,0.7,0.3,1.7c0,1.4-0.3,3.1-1,4.9L66,33.8l1.4,0.9c3.6,2.4,7.5,1.8,9.8-1.1c1.3-1.6,1.9-3.8,1.9-6.5c0-3.1-1-5.7-3-7.8
	s-5.3-3.1-9.7-3.1c-6.5,0-11.9,2.2-16.2,6.4c-4.1,4.1-7.1,9-8.9,14.6c-1.8,5.5-2.7,10.6-2.7,15.2c0,5.8,1.5,10.2,4.6,13.1
	c3,2.8,7.2,4.3,12.5,4.3c11.2,0,20.7-6.3,28.2-18.8l1.9-3.2L77.6,47.8L77.6,47.8z"/>
<path class="st0" d="M115.7,19.9c-1.6-1.9-3.8-2.9-6.5-2.9c-2.4,0-4.7,0.6-6.8,1.8c-0.5,0.3-1,0.6-1.6,1l0.6-2.8h-18L72.3,69.2h18.1
	l7.9-37.4c1.1-1,2-1.7,2.7-2.1c0.5-0.3,1-0.4,1.7-0.5c0.1,0.2,0.1,0.4,0.2,0.7c0.3,1.6,0.8,2.8,1.5,3.7c0.9,1.3,2.4,1.9,4.6,1.9
	c2.8,0,5.1-1,6.7-2.8c1.5-1.8,2.3-3.9,2.3-6.3C118,23.9,117.2,21.7,115.7,19.9z"/>
<path class="st0" d="M138.6,47.8l-0.4,1.5c-0.6,2.1-1.6,3.9-2.9,5.1c-1.2,1.2-2.4,1.7-3.7,1.7s-1.6-0.3-1.6-0.3
	c-0.1-0.1-0.2-0.4-0.2-1.2c0-0.9,0.1-1.7,0.3-2.6l7.4-35.1h-18.1l-6.9,32.5c-0.5,2.7-0.8,4.9-0.8,6.6c0,4.4,1.2,7.8,3.4,10.1
	c2.3,2.3,5.3,3.5,8.9,3.5c4.1,0,8.2-1.4,12.2-4c4.1-2.7,7.4-7.8,9.9-15.1l1-2.8L138.6,47.8L138.6,47.8z"/>
<path class="st1" d="M138.5,11.1h-18c0-5,4-9,9-9C134.4,2,138.5,6.1,138.5,11.1z"/>
<path class="st0" d="M167.9,16.8c-1.3,0-2.7,0.2-4.1,0.6c-0.3,0.1-0.5,0.2-0.8,0.3L166.8,0h-17.7l-0.4,0.1l-10.6,49.4
	c-0.5,1.9-0.7,3.9-0.7,6c0,4.5,1.4,8.1,4.1,10.6c2.7,2.5,6.5,3.8,11.4,3.8c6.8,0,12.4-2,16.7-5.9c4.2-3.8,7.2-8.4,9-13.8
	c1.8-5.2,2.7-10.2,2.7-14.8C181.3,20,174,16.8,167.9,16.8z M166,44.9c-1,3.4-2.2,6.3-3.8,8.6c-1.3,1.9-2.6,2.8-3.8,2.8
	c-2.7,0-3-1-3-2.3c0-0.5,0.1-1.1,0.2-1.8l5.1-23.7c0.2-0.1,0.5-0.2,1-0.4c1-0.3,1.9-0.4,2.7-0.4c0.4,0,1.1,0,1.8,1.5
	s1.1,3.4,1.1,5.6C167.4,38.1,166.9,41.5,166,44.9z"/>
<path class="st0" d="M219.9,19.9c-1.6-1.9-3.8-2.9-6.5-2.9c-2.4,0-4.7,0.6-6.8,1.8c-0.5,0.3-1,0.6-1.6,1l0.6-2.8h-18.1l-11.1,52.2
	h18.1l7.9-37.4c1.1-1,2-1.7,2.7-2.1c0.5-0.3,1-0.4,1.7-0.5c0,0.2,0.1,0.4,0.2,0.7c0.3,1.6,0.8,2.8,1.5,3.7c0.9,1.3,2.4,1.9,4.6,1.9
	c2.8,0,5.1-1,6.7-2.8c1.5-1.8,2.3-3.9,2.3-6.3C222.1,23.9,221.4,21.7,219.9,19.9z"/>
<path class="st0" d="M265.5,17.1c0,0-13.4,62.6-14.1,64.4l-17,3.2l1.7-13.5l0.5-3.5c-2.5,1.4-5.3,2.2-8.3,2.2
	c-3.7,0-6.7-1.2-8.9-3.5c-2.3-2.3-3.4-5.7-3.4-10.1c0-1.7,0.3-4,0.8-6.6l6.9-32.5h18.1l-7.4,35.1c-0.2,0.7-0.2,1.3-0.2,2
	c0,2.1,0.5,2.1,0.8,2.1c1.1,0,2.1-0.5,3-1.5c1.1-1.3,1.9-3.1,2.6-5.3l6.8-32.4L265.5,17.1L265.5,17.1z"/>
</svg>
