<?xml version="1.0" encoding="utf-8"?>
<!-- Generator: Adobe Illustrator 23.0.1, SVG Export Plug-In . SVG Version: 6.00 Build 0)  -->
<svg version="1.1" id="Layer_1" xmlns="http://www.w3.org/2000/svg" xmlns:xlink="http://www.w3.org/1999/xlink" x="0px" y="0px"
	 viewBox="0 0 253.4 85.2" style="enable-background:new 0 0 253.4 85.2;" xml:space="preserve">
<style type="text/css">
	.st0{fill:#04167F;}
	.st1{fill:#F4BB28;}
</style>
<g>
	<g>
		<g>
			<path class="st0" d="M16.6,34.2c0,1.8,2.5,3.3,7.6,4.6c1.8,0.4,3.4,0.8,4.8,1.4c1.4,0.5,2.9,1.3,4.4,2.2c1.5,1,2.6,2.3,3.4,3.9
				c0.8,1.6,1.2,3.5,1.2,5.6c0,4.3-1.6,7.6-4.8,9.9c-3.2,2.3-7.2,3.4-11.9,3.4c-8.5,0-14.3-3.3-17.4-9.9l9.3-5.2
				c1.3,3.6,4,5.4,8.1,5.4c3.8,0,5.7-1.2,5.7-3.6c0-1.8-2.5-3.3-7.6-4.6c-1.9-0.5-3.5-1-4.8-1.5c-1.3-0.5-2.8-1.2-4.3-2.2
				c-1.6-1-2.7-2.2-3.5-3.7c-0.8-1.5-1.2-3.3-1.2-5.4c0-4.1,1.5-7.3,4.5-9.6c3-2.4,6.8-3.6,11.3-3.6c3.4,0,6.4,0.8,9.2,2.3
				c2.8,1.5,4.9,3.7,6.6,6.5L28,35c-1.3-2.8-3.5-4.2-6.6-4.2c-1.4,0-2.5,0.3-3.4,1C17,32.4,16.6,33.2,16.6,34.2z"/>
			<path class="st0" d="M61.8,65.1c-6.3,0-11.5-2.1-15.7-6.3c-4.1-4.2-6.2-9.4-6.2-15.6c0-6.2,2.1-11.4,6.2-15.6
				c4.2-4.2,9.4-6.3,15.7-6.3c4,0,7.7,1,11,2.9c3.3,1.9,5.8,4.5,7.6,7.8l-9.2,5.4c-0.8-1.7-2.1-3.1-3.8-4.1c-1.7-1-3.6-1.5-5.7-1.5
				c-3.2,0-5.9,1.1-8,3.2c-2.1,2.1-3.2,4.9-3.2,8.2c0,3.2,1.1,5.9,3.2,8.1c2.1,2.1,4.8,3.2,8,3.2c2.2,0,4.1-0.5,5.8-1.5
				c1.7-1,2.9-2.3,3.8-4l9.3,5.3c-1.8,3.3-4.4,5.9-7.8,7.9C69.4,64.1,65.8,65.1,61.8,65.1z"/>
			<path class="st0" d="M96.1,22.4v7.1c0.9-2.6,2.5-4.6,4.8-5.9c2.3-1.4,4.9-2,7.8-2v12c-3.3-0.4-6.2,0.2-8.8,2
				c-2.5,1.7-3.8,4.6-3.8,8.5v19.8H85.4V22.4H96.1z"/>
			<path class="st0" d="M124.5,63.9h-10.7V22.4h10.7V63.9z"/>
			<path class="st0" d="M153.9,21.3c5.6,0,10.3,2.1,14.3,6.4c4,4.3,6,9.4,6,15.5c0,6.2-2,11.4-6,15.6c-3.9,4.2-8.6,6.3-14.3,6.3
				c-5.8,0-10.3-2-13.4-6.1v4.9h-10.7V5.8h10.7v21.5C143.6,23.3,148.1,21.3,153.9,21.3z M143.7,51.6c2.2,2.2,4.9,3.2,8.2,3.2
				s6.1-1.1,8.2-3.2c2.2-2.2,3.3-5,3.3-8.5c0-3.4-1.1-6.2-3.3-8.4c-2.2-2.2-4.9-3.3-8.2-3.3s-6.1,1.1-8.2,3.3
				c-2.2,2.2-3.2,5-3.2,8.4C140.5,46.6,141.6,49.4,143.7,51.6z"/>
			<path class="st0" d="M189.1,22.4v7.1c0.9-2.6,2.5-4.6,4.8-5.9c2.3-1.4,4.9-2,7.8-2v12c-3.3-0.4-6.2,0.2-8.8,2
				c-2.5,1.7-3.8,4.6-3.8,8.5v19.8h-10.7V22.4H189.1z"/>
			<path class="st0" d="M228.9,49.2l9.2-27.9h11.5l-15.1,41.5c-2.2,6-5,10.3-8.6,13c-3.6,2.7-8,3.9-13.3,3.6v-10
				c2.8,0.1,5.1-0.6,6.8-1.8c1.7-1.3,3.1-3.3,4.1-6.1l-17-40.2h11.7L228.9,49.2z"/>
		</g>
		<path class="st1" d="M124.5,17.5h-10.7c0-1.4,0.5-2.7,1.6-3.7c1.1-1.1,2.3-1.6,3.7-1.6c1.5,0,2.7,0.5,3.8,1.6
			C124,14.9,124.5,16.1,124.5,17.5z"/>
	</g>
</g>
</svg>
