<svg width="115" height="35" viewBox="0 0 115 35" fill="none" xmlns="http://www.w3.org/2000/svg">
<path d="M5.90038 13.178C5.90038 14.0075 7.0742 14.7118 9.40618 15.2909C10.22 15.4631 10.9713 15.6822 11.6443 15.9326C12.3172 16.183 12.9902 16.5273 13.6632 16.9655C14.3362 17.4194 14.884 18.0142 15.2596 18.7654C15.6509 19.5166 15.8387 20.3774 15.8387 21.3478C15.8387 23.3198 15.0874 24.8536 13.6006 25.9335C12.1138 26.9821 10.267 27.5142 8.0915 27.5142C4.13183 27.5142 1.43988 25.9804 0 22.9285L4.31964 20.5026C4.91438 22.1773 6.16645 23.0068 8.0915 23.0068C9.86005 23.0068 10.7522 22.459 10.7522 21.3478C10.7522 20.5339 9.57834 19.814 7.24636 19.2349C6.36991 19.0002 5.63432 18.7654 5.00828 18.5463C4.3979 18.3115 3.72491 17.9672 3.00497 17.529C2.28503 17.0751 1.73725 16.496 1.36163 15.7917C0.986005 15.0874 0.798195 14.2579 0.798195 13.3032C0.798195 11.4095 1.48683 9.907 2.87976 8.82708C4.28834 7.71587 6.04124 7.16809 8.12281 7.16809C9.68789 7.16809 11.1121 7.52806 12.3955 8.23235C13.6789 8.93664 14.6962 9.95395 15.4474 11.253L11.206 13.5693C10.5956 12.2546 9.56269 11.5973 8.13846 11.5973C7.49677 11.5973 6.96464 11.7381 6.54207 12.0355C6.10384 12.3329 5.90038 12.7242 5.90038 13.178Z" fill="white"/>
<path d="M26.8882 27.5142C23.9772 27.5142 21.5513 26.5439 19.6106 24.5875C17.6855 22.6312 16.7151 20.2209 16.7151 17.3412C16.7151 14.4614 17.6855 12.0512 19.6106 10.0948C21.5669 8.13845 23.9928 7.16809 26.8882 7.16809C28.7663 7.16809 30.4723 7.62197 32.0061 8.51407C33.5398 9.40617 34.7137 10.6269 35.5119 12.1294L31.2392 14.6336C30.8479 13.8354 30.2688 13.2093 29.4863 12.7398C28.7037 12.2703 27.8273 12.0512 26.8413 12.0512C25.3544 12.0512 24.118 12.552 23.1477 13.538C22.1773 14.524 21.6765 15.7917 21.6765 17.3412C21.6765 18.828 22.1617 20.0957 23.1477 21.113C24.118 22.0834 25.3544 22.5842 26.8413 22.5842C27.8429 22.5842 28.735 22.3651 29.5176 21.9112C30.3001 21.4573 30.8792 20.8313 31.2705 20.0488L35.5901 22.5216C34.745 24.0554 33.5398 25.2762 31.9904 26.1839C30.441 27.0604 28.735 27.5142 26.8882 27.5142Z" fill="white"/>
<path d="M42.8208 7.70021V11.0182C43.259 9.81308 43.9946 8.88967 45.0589 8.26364C46.1075 7.6376 47.3126 7.32458 48.6742 7.32458V12.865C47.1561 12.6615 45.7945 12.9746 44.5894 13.7884C43.3999 14.5866 42.8208 15.9013 42.8208 17.7637V26.9664H37.8438V7.70021H42.8208Z" fill="white"/>
<path d="M56.0145 26.9821H51.0375V7.70023H56.0145V26.9821Z" fill="white"/>
<path d="M69.6777 7.1681C72.2758 7.1681 74.4826 8.15411 76.2981 10.1418C78.1449 12.1138 79.0683 14.524 79.0683 17.3412C79.0683 20.2209 78.1449 22.6312 76.2981 24.5875C74.4982 26.5439 72.2914 27.5142 69.6777 27.5142C66.9858 27.5142 64.9042 26.5752 63.433 24.6971V26.9665H58.4561V0H63.433V9.98526C64.9042 8.10715 66.9858 7.1681 69.6777 7.1681ZM64.9355 21.2695C65.9372 22.2712 67.2049 22.772 68.7543 22.772C70.3038 22.772 71.5715 22.2712 72.5731 21.2695C73.6061 20.2366 74.1226 18.9376 74.1226 17.3412C74.1226 15.7448 73.6061 14.4458 72.5731 13.4441C71.5715 12.4111 70.3038 11.9103 68.7543 11.9103C67.2049 11.9103 65.9372 12.4268 64.9355 13.4441C63.9339 14.4458 63.433 15.7448 63.433 17.3412C63.433 18.9376 63.9339 20.2522 64.9355 21.2695Z" fill="white"/>
<path d="M85.986 7.70021V11.0182C86.4242 9.81308 87.1598 8.88967 88.224 8.26364C89.2726 7.6376 90.4778 7.32458 91.8394 7.32458V12.865C90.3212 12.6615 88.9596 12.9746 87.7545 13.7884C86.565 14.5866 85.986 15.9013 85.986 17.7637V26.9664H81.009V7.70021H85.986Z" fill="white"/>
<path d="M104.485 20.127L108.758 7.18375H114.079L107.068 26.45C106.066 29.2202 104.736 31.2392 103.077 32.4756C101.418 33.7276 99.3518 34.2754 96.8946 34.1502V29.5332C98.2093 29.5645 99.2579 29.2828 100.056 28.6881C100.854 28.0933 101.48 27.1543 101.95 25.8396L94.0461 7.18375H99.477L104.485 20.127Z" fill="white"/>
<path d="M56.0145 5.4465H51.0375C51.0375 4.78916 51.2879 4.21008 51.7731 3.70925C52.2583 3.20842 52.8374 2.95801 53.5104 2.95801C54.199 2.95801 54.7937 3.20842 55.2789 3.70925C55.7641 4.21008 56.0145 4.78916 56.0145 5.4465Z" fill="#FFC632"/>
</svg>
